<svg xmlns="http://www.w3.org/2000/svg" version="1.1" xmlns:xlink="http://www.w3.org/1999/xlink" xmlns:svgjs="http://svgjs.dev/svgjs" viewBox="0 0 1422 800"><g stroke-width="3.5" stroke="hsl(61, 71%, 53%)" fill="none" stroke-linecap="butt"><line x1="112" y1="0" x2="0" y2="112" opacity="0.67"></line><line x1="112" y1="0" x2="224" y2="112" opacity="0.75"></line><line x1="336" y1="0" x2="224" y2="112" opacity="0.46"></line><line x1="336" y1="0" x2="448" y2="112" opacity="0.34"></line><line x1="448" y1="0" x2="560" y2="112" opacity="0.71"></line><line x1="672" y1="0" x2="560" y2="112" opacity="0.85"></line><line x1="672" y1="0" x2="784" y2="112" opacity="0.69"></line><line x1="784" y1="0" x2="896" y2="112" opacity="0.52"></line><line x1="1008" y1="0" x2="896" y2="112" opacity="0.93"></line><line x1="1008" y1="0" x2="1120" y2="112" opacity="0.53"></line><line x1="1120" y1="0" x2="1232" y2="112" opacity="0.47"></line><line x1="1344" y1="0" x2="1232" y2="112" opacity="0.20"></line><line x1="1456" y1="0" x2="1344" y2="112" opacity="0.40"></line><line x1="0" y1="112" x2="112" y2="224" opacity="0.09"></line><line x1="224" y1="112" x2="112" y2="224" opacity="0.51"></line><line x1="336" y1="112" x2="224" y2="224" opacity="0.64"></line><line x1="336" y1="112" x2="448" y2="224" opacity="0.15"></line><line x1="560" y1="112" x2="448" y2="224" opacity="0.61"></line><line x1="560" y1="112" x2="672" y2="224" opacity="0.58"></line><line x1="672" y1="112" x2="784" y2="224" opacity="0.17"></line><line x1="784" y1="112" x2="896" y2="224" opacity="0.41"></line><line x1="896" y1="112" x2="1008" y2="224" opacity="0.58"></line><line x1="1008" y1="112" x2="1120" y2="224" opacity="0.27"></line><line x1="1120" y1="112" x2="1232" y2="224" opacity="0.96"></line><line x1="1344" y1="112" x2="1232" y2="224" opacity="0.95"></line><line x1="1344" y1="112" x2="1456" y2="224" opacity="0.35"></line><line x1="0" y1="224" x2="112" y2="336" opacity="0.16"></line><line x1="112" y1="224" x2="224" y2="336" opacity="0.16"></line><line x1="224" y1="224" x2="336" y2="336" opacity="0.96"></line><line x1="336" y1="224" x2="448" y2="336" opacity="0.42"></line><line x1="448" y1="224" x2="560" y2="336" opacity="0.22"></line><line x1="560" y1="224" x2="672" y2="336" opacity="0.09"></line><line x1="672" y1="224" x2="784" y2="336" opacity="0.78"></line><line x1="896" y1="224" x2="784" y2="336" opacity="0.26"></line><line x1="896" y1="224" x2="1008" y2="336" opacity="0.62"></line><line x1="1008" y1="224" x2="1120" y2="336" opacity="0.64"></line><line x1="1232" y1="224" x2="1120" y2="336" opacity="0.70"></line><line x1="1344" y1="224" x2="1232" y2="336" opacity="0.15"></line><line x1="1344" y1="224" x2="1456" y2="336" opacity="0.31"></line><line x1="0" y1="336" x2="112" y2="448" opacity="0.38"></line><line x1="224" y1="336" x2="112" y2="448" opacity="0.60"></line><line x1="336" y1="336" x2="224" y2="448" opacity="0.63"></line><line x1="336" y1="336" x2="448" y2="448" opacity="0.46"></line><line x1="560" y1="336" x2="448" y2="448" opacity="0.23"></line><line x1="560" y1="336" x2="672" y2="448" opacity="0.67"></line><line x1="672" y1="336" x2="784" y2="448" opacity="0.77"></line><line x1="896" y1="336" x2="784" y2="448" opacity="0.93"></line><line x1="896" y1="336" x2="1008" y2="448" opacity="0.93"></line><line x1="1120" y1="336" x2="1008" y2="448" opacity="0.31"></line><line x1="1120" y1="336" x2="1232" y2="448" opacity="0.11"></line><line x1="1232" y1="336" x2="1344" y2="448" opacity="0.53"></line><line x1="1344" y1="336" x2="1456" y2="448" opacity="0.19"></line><line x1="0" y1="448" x2="112" y2="560" opacity="0.40"></line><line x1="112" y1="448" x2="224" y2="560" opacity="0.52"></line><line x1="336" y1="448" x2="224" y2="560" opacity="0.92"></line><line x1="336" y1="448" x2="448" y2="560" opacity="0.69"></line><line x1="560" y1="448" x2="448" y2="560" opacity="0.66"></line><line x1="672" y1="448" x2="560" y2="560" opacity="0.11"></line><line x1="672" y1="448" x2="784" y2="560" opacity="0.57"></line><line x1="784" y1="448" x2="896" y2="560" opacity="0.83"></line><line x1="896" y1="448" x2="1008" y2="560" opacity="0.15"></line><line x1="1008" y1="448" x2="1120" y2="560" opacity="0.93"></line><line x1="1120" y1="448" x2="1232" y2="560" opacity="0.50"></line><line x1="1232" y1="448" x2="1344" y2="560" opacity="0.80"></line><line x1="1344" y1="448" x2="1456" y2="560" opacity="0.19"></line><line x1="0" y1="560" x2="112" y2="672" opacity="0.67"></line><line x1="112" y1="560" x2="224" y2="672" opacity="0.70"></line><line x1="336" y1="560" x2="224" y2="672" opacity="0.29"></line><line x1="336" y1="560" x2="448" y2="672" opacity="0.18"></line><line x1="448" y1="560" x2="560" y2="672" opacity="0.47"></line><line x1="672" y1="560" x2="560" y2="672" opacity="0.86"></line><line x1="784" y1="560" x2="672" y2="672" opacity="0.82"></line><line x1="896" y1="560" x2="784" y2="672" opacity="0.43"></line><line x1="1008" y1="560" x2="896" y2="672" opacity="0.23"></line><line x1="1008" y1="560" x2="1120" y2="672" opacity="0.99"></line><line x1="1120" y1="560" x2="1232" y2="672" opacity="0.98"></line><line x1="1232" y1="560" x2="1344" y2="672" opacity="0.36"></line><line x1="1344" y1="560" x2="1456" y2="672" opacity="0.59"></line><line x1="0" y1="672" x2="112" y2="784" opacity="0.39"></line><line x1="224" y1="672" x2="112" y2="784" opacity="0.27"></line><line x1="336" y1="672" x2="224" y2="784" opacity="0.94"></line><line x1="336" y1="672" x2="448" y2="784" opacity="0.16"></line><line x1="448" y1="672" x2="560" y2="784" opacity="0.73"></line><line x1="560" y1="672" x2="672" y2="784" opacity="0.38"></line><line x1="672" y1="672" x2="784" y2="784" opacity="0.95"></line><line x1="784" y1="672" x2="896" y2="784" opacity="0.17"></line><line x1="896" y1="672" x2="1008" y2="784" opacity="0.98"></line><line x1="1008" y1="672" x2="1120" y2="784" opacity="0.50"></line><line x1="1232" y1="672" x2="1120" y2="784" opacity="0.10"></line><line x1="1232" y1="672" x2="1344" y2="784" opacity="0.85"></line><line x1="1344" y1="672" x2="1456" y2="784" opacity="0.67"></line><line x1="112" y1="784" x2="0" y2="896" opacity="0.88"></line><line x1="224" y1="784" x2="112" y2="896" opacity="0.80"></line><line x1="224" y1="784" x2="336" y2="896" opacity="0.85"></line><line x1="448" y1="784" x2="336" y2="896" opacity="0.25"></line><line x1="448" y1="784" x2="560" y2="896" opacity="0.22"></line><line x1="560" y1="784" x2="672" y2="896" opacity="0.66"></line><line x1="672" y1="784" x2="784" y2="896" opacity="0.23"></line><line x1="784" y1="784" x2="896" y2="896" opacity="0.47"></line><line x1="896" y1="784" x2="1008" y2="896" opacity="0.48"></line><line x1="1008" y1="784" x2="1120" y2="896" opacity="0.21"></line><line x1="1232" y1="784" x2="1120" y2="896" opacity="0.59"></line><line x1="1232" y1="784" x2="1344" y2="896" opacity="0.23"></line><line x1="1344" y1="784" x2="1456" y2="896" opacity="0.42"></line></g></svg>